<svg width="33" height="33" viewBox="0 0 33 33" fill="none" xmlns="http://www.w3.org/2000/svg">
<path d="M28.4441 16.775C28.4441 17.0439 28.3373 17.3019 28.1471 17.492C27.9569 17.6822 27.699 17.789 27.43 17.789H7.56835L14.9647 25.1841C15.0589 25.2783 15.1337 25.3902 15.1846 25.5133C15.2356 25.6364 15.2619 25.7683 15.2619 25.9015C15.2619 26.0348 15.2356 26.1667 15.1846 26.2898C15.1337 26.4129 15.0589 26.5248 14.9647 26.619C14.8705 26.7132 14.7586 26.7879 14.6355 26.8389C14.5124 26.8899 14.3805 26.9162 14.2473 26.9162C14.114 26.9162 13.9821 26.8899 13.859 26.8389C13.7359 26.7879 13.624 26.7132 13.5298 26.619L4.40323 17.4924C4.30903 17.3982 4.23425 17.2864 4.18313 17.1633C4.13211 17.0402 4.10577 16.9082 4.10577 16.775C4.10577 16.6417 4.13211 16.5098 4.18313 16.3867C4.23425 16.2635 4.30903 16.1517 4.40323 16.0575L13.5298 6.93097C13.7201 6.74069 13.9782 6.63379 14.2473 6.63379C14.5164 6.63379 14.7744 6.74069 14.9647 6.93097C15.155 7.12125 15.2619 7.37932 15.2619 7.64842C15.2619 7.91751 15.155 8.17559 14.9647 8.36586L7.56835 15.7609H27.43C27.699 15.7609 27.9569 15.8678 28.1471 16.0579C28.3373 16.2481 28.4441 16.506 28.4441 16.775Z" fill="white"/>
</svg>
