<svg width="24" height="25" viewBox="0 0 24 25" fill="none" xmlns="http://www.w3.org/2000/svg">
<path d="M21.5308 20.9693L16.8368 16.2762C18.1973 14.6428 18.8757 12.5478 18.7309 10.4269C18.5861 8.30604 17.6293 6.32265 16.0593 4.88932C14.4894 3.45599 12.4274 2.68308 10.3021 2.73138C8.17687 2.77968 6.15205 3.64547 4.64888 5.14864C3.14571 6.65181 2.27993 8.67663 2.23163 10.8019C2.18333 12.9271 2.95623 14.9892 4.38956 16.5591C5.82289 18.129 7.80629 19.0859 9.92715 19.2307C12.048 19.3755 14.1431 18.6971 15.7765 17.3365L20.4696 22.0306C20.5393 22.1003 20.622 22.1556 20.713 22.1933C20.8041 22.231 20.9017 22.2504 21.0002 22.2504C21.0988 22.2504 21.1963 22.231 21.2874 22.1933C21.3784 22.1556 21.4612 22.1003 21.5308 22.0306C21.6005 21.9609 21.6558 21.8782 21.6935 21.7871C21.7312 21.6961 21.7506 21.5985 21.7506 21.5C21.7506 21.4014 21.7312 21.3038 21.6935 21.2128C21.6558 21.1218 21.6005 21.039 21.5308 20.9693ZM3.75021 11C3.75021 9.66495 4.14609 8.3599 4.88779 7.24987C5.62949 6.13984 6.6837 5.27467 7.9171 4.76378C9.1505 4.25289 10.5077 4.11922 11.8171 4.37967C13.1264 4.64012 14.3292 5.28299 15.2732 6.227C16.2172 7.171 16.8601 8.37374 17.1205 9.68311C17.381 10.9925 17.2473 12.3497 16.7364 13.5831C16.2255 14.8165 15.3603 15.8707 14.2503 16.6124C13.1403 17.3541 11.8352 17.75 10.5002 17.75C8.71061 17.748 6.99488 17.0362 5.72944 15.7707C4.46399 14.5053 3.7522 12.7896 3.75021 11Z" fill="#121212"/>
</svg>
